<?xml version="1.0" standalone="no"?><!DOCTYPE svg PUBLIC "-//W3C//DTD SVG 1.1//EN" "http://www.w3.org/Graphics/SVG/1.1/DTD/svg11.dtd"><svg t="1768007930122" class="icon" viewBox="0 0 1025 1024" version="1.1" xmlns="http://www.w3.org/2000/svg" p-id="1390" xmlns:xlink="http://www.w3.org/1999/xlink" width="200.1953125" height="200"><path d="M512.001534 512m-511.488511 0a511.488511 511.488511 0 1 0 1022.977023 0 511.488511 511.488511 0 1 0-1022.977023 0Z" fill="#040000" p-id="1391"></path><path d="M512.001534 1024c-69.119489 0-136.17154-13.537055-199.293314-40.235732-60.969431-25.787205-115.724276-62.7044-162.745415-109.725539-47.021139-47.021139-83.938334-101.775984-109.725538-162.745414C13.538589 648.17154 0.001534 581.118466 0.001534 512c0-69.119489 13.537055-136.17154 40.235733-199.293315 25.787205-60.969431 62.7044-115.724276 109.725538-162.745414 47.021139-47.021139 101.775984-83.938334 162.745415-109.725539C375.829994 13.537055 442.882046 0 512.001534 0c69.118466 0 136.17154 13.537055 199.293315 40.235732 60.969431 25.787205 115.724276 62.7044 162.745415 109.725539 47.021139 47.021139 83.938334 101.775984 109.725538 162.745414C1010.46448 375.82846 1024.001534 442.880511 1024.001534 512c0 69.118466-13.537055 136.17154-40.235732 199.293315-25.787205 60.969431-62.7044 115.724276-109.725538 162.745414s-101.775984 83.938334-162.745415 109.725539C648.173075 1010.462945 581.12 1024 512.001534 1024z m0-1022.977023C230.248088 1.022977 1.024511 230.246553 1.024511 512S230.248088 1022.977023 512.001534 1022.977023 1022.978557 793.753447 1022.978557 512 793.754981 1.022977 512.001534 1.022977z" p-id="1392"></path><path d="M405.4922675 562.89438594c-35.42409562-40.90117875-81.35352656-119.77174781-57.34009969-215.04575438 127.88619375 56.41078875 115.15684313 221.36967 129.01786219 473.08819125h-28.67052937v-57.34393594H348.15216781s-100.34637375 7.2829575-100.34637375 43.00723313c0 35.72811187 79.38653344 71.67680344 286.70817188 71.67680344 207.33314719 0 243.70093875-54.40351687 243.70093875-71.67680344 0-17.30397562-20.61170812-43.00723312-100.34733188-43.00723313h-57.34010062s-10.63960031-162.23520469 100.34733281-329.72691281c14.03748281 19.5222375 33.37174781 63.73114875-28.67340656 143.36607375 73.88739281-6.95304656 88.65182812-51.86685281 86.01446531-114.69938062 20.77282687 10.77003 36.59700281 32.48751281 28.67340656 114.69938062 43.17890156-26.00631375 66.77322656-103.25706281 0-157.70565375 30.17622375 1.82505469 46.41566437 2.91068906 57.34010063 57.34009969 40.35452531-35.58905063-13.37382656-136.59908062-100.34733281-114.68020031C746.85138875 258.75564406 591.85406563 273.1028975 591.85406563 333.51192781c34.664535-6.86385656 74.17222781-5.56339687 86.01446625 14.33670375-39.00611344 1.56611344-86.01446531 7.2378825-86.01446625 114.68403563 35.19584438-39.77814187 49.31580375-60.68139844 114.68403656-57.34009969-42.23136844 25.83368625-129.01690312 143.95684313-129.01690313 415.74425531-23.64227813 0.34429594-43.00723312 0-43.00723312 0S552.99084875 434.30809156 391.15940094 319.17810219c65.86693313-6.04963031 118.02245719-7.09882125 172.02413531 100.34733281 8.11444594-58.77482531 8.2870725-184.85514469-129.01690312-172.02413625 15.06365625-29.59120875 13.56179813-50.36115844 129.01690312-43.00723312-74.97398625-110.38273687-239.35936031-47.42361656-243.704775 57.34010062 0 0-172.58613375-35.53630406-172.0279725 143.35840125 45.80187844-45.24371625 67.27864125-64.424535 86.01446625-71.68063969-24.42581438 33.79084875-85.03624406 123.4573425 0 200.71288782 2.93658375-103.76055937 26.24991-120.46129875 43.00627313-143.36511563 0.97822219 51.8323275 4.48831125 168.72311719 129.02073937 172.03468594" fill="#FFFFFF" p-id="1393"></path></svg>