<?xml version="1.0" standalone="no"?><!DOCTYPE svg PUBLIC "-//W3C//DTD SVG 1.1//EN" "http://www.w3.org/Graphics/SVG/1.1/DTD/svg11.dtd"><svg t="1768007996206" class="icon" viewBox="0 0 1024 1024" version="1.1" xmlns="http://www.w3.org/2000/svg" p-id="4080" xmlns:xlink="http://www.w3.org/1999/xlink" width="200" height="200"><path d="M21.333333 168.533333h981.333334v42.666667H21.333333zM960 810.666667H140.8c-12.8 0-23.466667-10.666667-23.466667-23.466667V283.733333v-12.8c2.133333-6.4 8.533333-14.933333 23.466667-14.933333H960c12.8 0 23.466667 10.666667 23.466667 23.466667v507.733333c0 12.8-10.666667 23.466667-23.466667 23.466667zM160 768h780.8V298.666667H160v469.333333z" fill="#13227a" p-id="4081"></path><path d="M0 21.333333h42.666667v981.333334H0z" fill="#13227a" p-id="4082"></path><path d="M260.266667 136.533333h42.666666v189.866667h-42.666666zM797.866667 136.533333h42.666666v189.866667h-42.666666z" fill="#13227a" p-id="4083"></path><path d="M260.266667 390.4v53.333333h57.6v-53.333333h34.133333v136.533333h-34.133333V469.333333h-57.6v57.6h-34.133334v-136.533333h34.133334zM524.8 456.533333c0 44.8-29.866667 72.533333-74.666667 72.533334s-72.533333-29.866667-72.533333-70.4 29.866667-72.533333 74.666667-72.533334c46.933333 2.133333 72.533333 32 72.533333 70.4z m-110.933333 2.133334c0 27.733333 14.933333 44.8 38.4 44.8s36.266667-19.2 36.266666-46.933334c0-25.6-12.8-44.8-36.266666-44.8-25.6 0-38.4 21.333333-38.4 46.933334zM569.6 416h-40.533333v-25.6h119.466666v25.6h-42.666666v110.933333h-34.133334v-110.933333h-2.133333zM757.333333 469.333333h-57.6v32h64v25.6h-98.133333v-136.533333h96v25.6h-59.733333v27.733333h57.6l-2.133334 25.6zM789.333333 390.4h34.133334v110.933333h61.866666v25.6H789.333333v-136.533333z" fill="#13227a" p-id="4084"></path><path d="M324.266667 640l-49.066667-4.266667L256 597.333333l-19.2 38.4-46.933333 4.266667 36.266666 27.733333-10.666666 42.666667 42.666666-23.466667 40.533334 23.466667-10.666667-42.666667zM471.466667 640l-49.066667-4.266667-19.2-38.4-19.2 38.4-46.933333 4.266667 36.266666 27.733333-10.666666 42.666667 40.533333-23.466667 42.666667 23.466667-10.666667-42.666667zM616.533333 640l-46.933333-4.266667-19.2-38.4-19.2 38.4-49.066667 4.266667 38.4 27.733333-10.666666 42.666667 40.533333-23.466667 42.666667 23.466667-12.8-42.666667zM763.733333 640l-46.933333-4.266667-21.333333-38.4-17.066667 38.4-49.066667 4.266667 38.4 27.733333-10.666666 42.666667 40.533333-23.466667 42.666667 23.466667-12.8-42.666667zM910.933333 640l-49.066666-4.266667-19.2-38.4-17.066667 38.4-49.066667 4.266667 36.266667 27.733333-8.533333 42.666667 40.533333-23.466667 42.666667 23.466667-12.8-42.666667z" fill="#13227a" p-id="4085"></path></svg>