<?xml version="1.0" standalone="no"?><!DOCTYPE svg PUBLIC "-//W3C//DTD SVG 1.1//EN" "http://www.w3.org/Graphics/SVG/1.1/DTD/svg11.dtd"><svg t="1768008154184" class="icon" viewBox="0 0 1024 1024" version="1.1" xmlns="http://www.w3.org/2000/svg" p-id="14670" xmlns:xlink="http://www.w3.org/1999/xlink" width="200" height="200"><path d="M874 1024H150c-82.706 0-150-67.294-150-150V150C0 67.294 67.294 0 150 0h724c82.706 0 150 67.294 150 150v724c0 82.706-67.294 150-150 150z" fill="#d4237a" p-id="14671" data-spm-anchor-id="a313x.search_index.0.i7.59ad3a81Cue3Sh" class="selected"></path><path d="M874 0H512v1024h362c82.706 0 150-67.294 150-150V150c0-82.706-67.294-150-150-150z" fill="#13227a" p-id="14672" data-spm-anchor-id="a313x.search_index.0.i6.59ad3a81Cue3Sh" class=""></path><path d="M782 814c0 16.568-13.432 30-30 30h-60c-16.568 0-30-13.432-30-30V572H362v242c0 16.568-13.432 30-30 30h-60c-16.568 0-30-13.432-30-30V210c0-16.572 13.432-30 30-30h60c16.568 0 30 13.428 30 30v242h300V210c0-16.572 13.432-30 30-30h60c16.568 0 30 13.428 30 30v604z" fill="#E0E4EC" p-id="14673"></path><path d="M752 180h-60c-16.568 0-30 13.428-30 30v242h-150v120h150v242c0 16.568 13.432 30 30 30h60c16.568 0 30-13.432 30-30V210c0-16.572-13.432-30-30-30z" fill="#D1D7E3" p-id="14674"></path></svg>