<?xml version="1.0" encoding="UTF-8" standalone="no"?>
<!DOCTYPE svg PUBLIC "-//W3C//DTD SVG 1.1//EN"
 "http://www.w3.org/Graphics/SVG/1.1/DTD/svg11.dtd">
<!-- Generated by graphviz version 13.0.1 (20250615.1724)
 -->
<!-- Title: G Pages: 1 -->
<svg width="674pt" height="387pt"
 viewBox="0.00 0.00 674.00 387.00" xmlns="http://www.w3.org/2000/svg" xmlns:xlink="http://www.w3.org/1999/xlink">
<g id="graph0" class="graph" transform="scale(1 1) rotate(0) translate(4 383)">
<title>G</title>
<polygon fill="white" stroke="none" points="-4,4 -4,-383 669.5,-383 669.5,4 -4,4"/>
<!-- node1 -->
<g id="node1" class="node">
<title>node1</title>
<polygon fill="#b2d3e4" stroke="#8383cc" stroke-width="2" points="324,-332.5 324,-378.5 449.5,-378.5 449.5,-332.5 324,-332.5"/>
<text xml:space="preserve" text-anchor="middle" x="386.75" y="-361.2" font-family="Consolas" font-size="14.00">step1</text>
<polyline fill="none" stroke="#8383cc" stroke-width="2" points="324,-356.25 449.5,-356.25"/>
<text xml:space="preserve" text-anchor="middle" x="386.75" y="-338.95" font-family="Consolas" font-size="14.00">查看传入数值 1</text>
</g>
<!-- node2 -->
<g id="node2" class="node">
<title>node2</title>
<polygon fill="#b2d3e4" stroke="#8383cc" stroke-width="2" points="252,-249.5 252,-295.5 377.5,-295.5 377.5,-249.5 252,-249.5"/>
<text xml:space="preserve" text-anchor="middle" x="314.75" y="-278.2" font-family="Consolas" font-size="14.00">step2</text>
<polyline fill="none" stroke="#8383cc" stroke-width="2" points="252,-273.25 377.5,-273.25"/>
<text xml:space="preserve" text-anchor="middle" x="314.75" y="-255.95" font-family="Consolas" font-size="14.00">查看传入数值 2</text>
</g>
<!-- node1&#45;&gt;node2 -->
<g id="edge1" class="edge">
<title>node1&#45;&gt;node2</title>
<path fill="none" stroke="#8383cc" stroke-width="2" d="M366.31,-331.51C356.5,-320.47 344.78,-307.28 334.99,-296.27"/>
</g>
<!-- node9 -->
<g id="node9" class="node">
<title>node9</title>
<polygon fill="#b2d3e4" stroke="#8383cc" stroke-width="2" points="396,-249.5 396,-295.5 521.5,-295.5 521.5,-249.5 396,-249.5"/>
<text xml:space="preserve" text-anchor="middle" x="458.75" y="-278.2" font-family="Consolas" font-size="14.00">step9</text>
<polyline fill="none" stroke="#8383cc" stroke-width="2" points="396,-273.25 521.5,-273.25"/>
<text xml:space="preserve" text-anchor="middle" x="458.75" y="-255.95" font-family="Consolas" font-size="14.00">查看传入数值 7</text>
</g>
<!-- node1&#45;&gt;node9 -->
<g id="edge8" class="edge">
<title>node1&#45;&gt;node9</title>
<path fill="none" stroke="#8383cc" stroke-width="2" d="M407.19,-331.51C417,-320.47 428.72,-307.28 438.51,-296.27"/>
</g>
<!-- node3 -->
<g id="node3" class="node">
<title>node3</title>
<polygon fill="#b2d3e4" stroke="#8383cc" stroke-width="2" points="108,-166.5 108,-212.5 233.5,-212.5 233.5,-166.5 108,-166.5"/>
<text xml:space="preserve" text-anchor="middle" x="170.75" y="-195.2" font-family="Consolas" font-size="14.00">step3</text>
<polyline fill="none" stroke="#8383cc" stroke-width="2" points="108,-190.25 233.5,-190.25"/>
<text xml:space="preserve" text-anchor="middle" x="170.75" y="-172.95" font-family="Consolas" font-size="14.00">查看传入数值 4</text>
</g>
<!-- node2&#45;&gt;node3 -->
<g id="edge2" class="edge">
<title>node2&#45;&gt;node3</title>
<path fill="none" stroke="#8383cc" stroke-width="2" d="M273.87,-248.51C254.25,-237.47 230.8,-224.28 211.23,-213.27"/>
</g>
<!-- node8 -->
<g id="node8" class="node">
<title>node8</title>
<polygon fill="#b2d3e4" stroke="#8383cc" stroke-width="2" points="252,-166.5 252,-212.5 377.5,-212.5 377.5,-166.5 252,-166.5"/>
<text xml:space="preserve" text-anchor="middle" x="314.75" y="-195.2" font-family="Consolas" font-size="14.00">step8</text>
<polyline fill="none" stroke="#8383cc" stroke-width="2" points="252,-190.25 377.5,-190.25"/>
<text xml:space="preserve" text-anchor="middle" x="314.75" y="-172.95" font-family="Consolas" font-size="14.00">查看传入数值 0</text>
</g>
<!-- node2&#45;&gt;node8 -->
<g id="edge7" class="edge">
<title>node2&#45;&gt;node8</title>
<path fill="none" stroke="#8383cc" stroke-width="2" d="M314.75,-248.51C314.75,-237.47 314.75,-224.28 314.75,-213.27"/>
</g>
<!-- node4 -->
<g id="node4" class="node">
<title>node4</title>
<polygon fill="#b2d3e4" stroke="#8383cc" stroke-width="2" points="0,-83.5 0,-129.5 125.5,-129.5 125.5,-83.5 0,-83.5"/>
<text xml:space="preserve" text-anchor="middle" x="62.75" y="-112.2" font-family="Consolas" font-size="14.00">step4</text>
<polyline fill="none" stroke="#8383cc" stroke-width="2" points="0,-107.25 125.5,-107.25"/>
<text xml:space="preserve" text-anchor="middle" x="62.75" y="-89.95" font-family="Consolas" font-size="14.00">查看传入数值 0</text>
</g>
<!-- node3&#45;&gt;node4 -->
<g id="edge3" class="edge">
<title>node3&#45;&gt;node4</title>
<path fill="none" stroke="#8383cc" stroke-width="2" d="M140.09,-165.51C125.37,-154.47 107.79,-141.28 93.11,-130.27"/>
</g>
<!-- node5 -->
<g id="node5" class="node">
<title>node5</title>
<polygon fill="#b2d3e4" stroke="#8383cc" stroke-width="2" points="144,-83.5 144,-129.5 269.5,-129.5 269.5,-83.5 144,-83.5"/>
<text xml:space="preserve" text-anchor="middle" x="206.75" y="-112.2" font-family="Consolas" font-size="14.00">step5</text>
<polyline fill="none" stroke="#8383cc" stroke-width="2" points="144,-107.25 269.5,-107.25"/>
<text xml:space="preserve" text-anchor="middle" x="206.75" y="-89.95" font-family="Consolas" font-size="14.00">查看传入数值 3</text>
</g>
<!-- node3&#45;&gt;node5 -->
<g id="edge4" class="edge">
<title>node3&#45;&gt;node5</title>
<path fill="none" stroke="#8383cc" stroke-width="2" d="M180.97,-165.51C185.88,-154.47 191.74,-141.28 196.63,-130.27"/>
</g>
<!-- node6 -->
<g id="node6" class="node">
<title>node6</title>
<polygon fill="#b2d3e4" stroke="#8383cc" stroke-width="2" points="108,-0.5 108,-46.5 233.5,-46.5 233.5,-0.5 108,-0.5"/>
<text xml:space="preserve" text-anchor="middle" x="170.75" y="-29.2" font-family="Consolas" font-size="14.00">step6</text>
<polyline fill="none" stroke="#8383cc" stroke-width="2" points="108,-24.25 233.5,-24.25"/>
<text xml:space="preserve" text-anchor="middle" x="170.75" y="-6.95" font-family="Consolas" font-size="14.00">查看传入数值 0</text>
</g>
<!-- node5&#45;&gt;node6 -->
<g id="edge5" class="edge">
<title>node5&#45;&gt;node6</title>
<path fill="none" stroke="#8383cc" stroke-width="2" d="M196.53,-82.51C191.62,-71.47 185.76,-58.28 180.87,-47.27"/>
</g>
<!-- node7 -->
<g id="node7" class="node">
<title>node7</title>
<polygon fill="#b2d3e4" stroke="#8383cc" stroke-width="2" points="252,-0.5 252,-46.5 377.5,-46.5 377.5,-0.5 252,-0.5"/>
<text xml:space="preserve" text-anchor="middle" x="314.75" y="-29.2" font-family="Consolas" font-size="14.00">step7</text>
<polyline fill="none" stroke="#8383cc" stroke-width="2" points="252,-24.25 377.5,-24.25"/>
<text xml:space="preserve" text-anchor="middle" x="314.75" y="-6.95" font-family="Consolas" font-size="14.00">查看传入数值 0</text>
</g>
<!-- node5&#45;&gt;node7 -->
<g id="edge6" class="edge">
<title>node5&#45;&gt;node7</title>
<path fill="none" stroke="#8383cc" stroke-width="2" d="M237.41,-82.51C252.13,-71.47 269.71,-58.28 284.39,-47.27"/>
</g>
<!-- node10 -->
<g id="node10" class="node">
<title>node10</title>
<polygon fill="#b2d3e4" stroke="#8383cc" stroke-width="2" points="396,-166.5 396,-212.5 521.5,-212.5 521.5,-166.5 396,-166.5"/>
<text xml:space="preserve" text-anchor="middle" x="458.75" y="-195.2" font-family="Consolas" font-size="14.00">step10</text>
<polyline fill="none" stroke="#8383cc" stroke-width="2" points="396,-190.25 521.5,-190.25"/>
<text xml:space="preserve" text-anchor="middle" x="458.75" y="-172.95" font-family="Consolas" font-size="14.00">查看传入数值 6</text>
</g>
<!-- node9&#45;&gt;node10 -->
<g id="edge9" class="edge">
<title>node9&#45;&gt;node10</title>
<path fill="none" stroke="#8383cc" stroke-width="2" d="M458.75,-248.51C458.75,-237.47 458.75,-224.28 458.75,-213.27"/>
</g>
<!-- node15 -->
<g id="node15" class="node">
<title>node15</title>
<polygon fill="#b2d3e4" stroke="#8383cc" stroke-width="2" points="540,-166.5 540,-212.5 665.5,-212.5 665.5,-166.5 540,-166.5"/>
<text xml:space="preserve" text-anchor="middle" x="602.75" y="-195.2" font-family="Consolas" font-size="14.00">step15</text>
<polyline fill="none" stroke="#8383cc" stroke-width="2" points="540,-190.25 665.5,-190.25"/>
<text xml:space="preserve" text-anchor="middle" x="602.75" y="-172.95" font-family="Consolas" font-size="14.00">查看传入数值 0</text>
</g>
<!-- node9&#45;&gt;node15 -->
<g id="edge14" class="edge">
<title>node9&#45;&gt;node15</title>
<path fill="none" stroke="#8383cc" stroke-width="2" d="M499.63,-248.51C519.25,-237.47 542.7,-224.28 562.27,-213.27"/>
</g>
<!-- node11 -->
<g id="node11" class="node">
<title>node11</title>
<polygon fill="#b2d3e4" stroke="#8383cc" stroke-width="2" points="360,-83.5 360,-129.5 485.5,-129.5 485.5,-83.5 360,-83.5"/>
<text xml:space="preserve" text-anchor="middle" x="422.75" y="-112.2" font-family="Consolas" font-size="14.00">step11</text>
<polyline fill="none" stroke="#8383cc" stroke-width="2" points="360,-107.25 485.5,-107.25"/>
<text xml:space="preserve" text-anchor="middle" x="422.75" y="-89.95" font-family="Consolas" font-size="14.00">查看传入数值 0</text>
</g>
<!-- node10&#45;&gt;node11 -->
<g id="edge10" class="edge">
<title>node10&#45;&gt;node11</title>
<path fill="none" stroke="#8383cc" stroke-width="2" d="M448.53,-165.51C443.62,-154.47 437.76,-141.28 432.87,-130.27"/>
</g>
<!-- node12 -->
<g id="node12" class="node">
<title>node12</title>
<polygon fill="#b2d3e4" stroke="#8383cc" stroke-width="2" points="504,-83.5 504,-129.5 629.5,-129.5 629.5,-83.5 504,-83.5"/>
<text xml:space="preserve" text-anchor="middle" x="566.75" y="-112.2" font-family="Consolas" font-size="14.00">step12</text>
<polyline fill="none" stroke="#8383cc" stroke-width="2" points="504,-107.25 629.5,-107.25"/>
<text xml:space="preserve" text-anchor="middle" x="566.75" y="-89.95" font-family="Consolas" font-size="14.00">查看传入数值 5</text>
</g>
<!-- node10&#45;&gt;node12 -->
<g id="edge11" class="edge">
<title>node10&#45;&gt;node12</title>
<path fill="none" stroke="#8383cc" stroke-width="2" d="M489.41,-165.51C504.13,-154.47 521.71,-141.28 536.39,-130.27"/>
</g>
<!-- node13 -->
<g id="node13" class="node">
<title>node13</title>
<polygon fill="#b2d3e4" stroke="#8383cc" stroke-width="2" points="396,-0.5 396,-46.5 521.5,-46.5 521.5,-0.5 396,-0.5"/>
<text xml:space="preserve" text-anchor="middle" x="458.75" y="-29.2" font-family="Consolas" font-size="14.00">step13</text>
<polyline fill="none" stroke="#8383cc" stroke-width="2" points="396,-24.25 521.5,-24.25"/>
<text xml:space="preserve" text-anchor="middle" x="458.75" y="-6.95" font-family="Consolas" font-size="14.00">查看传入数值 0</text>
</g>
<!-- node12&#45;&gt;node13 -->
<g id="edge12" class="edge">
<title>node12&#45;&gt;node13</title>
<path fill="none" stroke="#8383cc" stroke-width="2" d="M536.09,-82.51C521.37,-71.47 503.79,-58.28 489.11,-47.27"/>
</g>
<!-- node14 -->
<g id="node14" class="node">
<title>node14</title>
<polygon fill="#b2d3e4" stroke="#8383cc" stroke-width="2" points="540,-0.5 540,-46.5 665.5,-46.5 665.5,-0.5 540,-0.5"/>
<text xml:space="preserve" text-anchor="middle" x="602.75" y="-29.2" font-family="Consolas" font-size="14.00">step14</text>
<polyline fill="none" stroke="#8383cc" stroke-width="2" points="540,-24.25 665.5,-24.25"/>
<text xml:space="preserve" text-anchor="middle" x="602.75" y="-6.95" font-family="Consolas" font-size="14.00">查看传入数值 0</text>
</g>
<!-- node12&#45;&gt;node14 -->
<g id="edge13" class="edge">
<title>node12&#45;&gt;node14</title>
<path fill="none" stroke="#8383cc" stroke-width="2" d="M576.97,-82.51C581.88,-71.47 587.74,-58.28 592.63,-47.27"/>
</g>
</g>
</svg>
